<svg width="151" height="151" viewBox="0 0 151 151" fill="none" xmlns="http://www.w3.org/2000/svg">
<path fill-rule="evenodd" clip-rule="evenodd" d="M6.76945 0.815955C4.54904 1.81027 1.43574 5.05921 0.613041 7.2407C0.184882 8.37656 -0.00855645 29.8983 0.000289809 75.3569C0.0126746 138.706 0.0639829 141.923 1.10194 144.172C2.41945 147.027 4.2866 148.824 7.20114 150.041C9.12904 150.847 17.1502 150.952 75.604 150.941C138.722 150.929 141.933 150.877 144.181 149.839C147.036 148.522 148.833 146.655 150.051 143.74C150.856 141.812 150.963 133.756 150.963 75.1711C150.963 20.02 150.825 8.46502 150.149 6.88862C149.157 4.57561 145.952 1.45289 143.701 0.603644C142.564 0.175486 120.98 -0.0150038 75.2896 0.000919489C20.7336 0.0197915 8.21552 0.168998 6.76945 0.815955ZM143.932 7.00951L145.656 8.73336V19.3943V30.0552H75.4754H5.29507V19.3943V8.73336L7.01891 7.00951L8.74275 5.28567H75.4754H142.208L143.932 7.00951ZM10.9396 10.9302C10.2224 11.6473 10.0131 13.1718 10.0131 17.6704C10.0131 25.2434 10.1039 25.3372 17.4268 25.3372C24.9774 25.3372 25.3466 24.968 25.3466 17.4174C25.3466 10.0945 25.2528 10.0037 17.6798 10.0037C13.1812 10.0037 11.6567 10.213 10.9396 10.9302ZM30.9911 10.9302C30.2751 11.6467 30.0646 13.1677 30.0646 17.6209C30.0646 25.162 30.2409 25.3372 37.834 25.3372C45.21 25.3372 45.3981 25.1426 45.3981 17.5189C45.3981 10.0809 45.3191 10.0037 37.7314 10.0037C33.2327 10.0037 31.7082 10.213 30.9911 10.9302ZM51.0426 10.9302C50.3255 11.6479 50.1161 13.173 50.1161 17.6793C50.1161 25.0895 50.3768 25.3372 58.1668 25.3372C65.3411 25.3372 65.4496 25.2228 65.4496 17.6704C65.4496 10.0603 65.393 10.0037 57.7829 10.0037C53.2843 10.0037 51.7598 10.213 51.0426 10.9302ZM20.0388 17.6704V20.0294H17.6798H15.3208V17.6704V15.3114H17.6798H20.0388V17.6704ZM40.0904 17.6704V20.0294H37.7314H35.3724V17.6704V15.3114H37.7314H40.0904V17.6704ZM60.1419 17.6704V20.0294H57.7829H55.4239V17.6704V15.3114H57.7829H60.1419V17.6704ZM145.656 88.7808V142.199L143.932 143.922L142.208 145.646H75.4754H8.74275L7.01891 143.922L5.29507 142.199V88.7808V35.3629H75.4754H145.656V88.7808ZM10.9396 41.0075C10.1251 41.8225 10.0131 45.0921 10.0131 68.018C10.0131 87.5193 10.1918 94.2808 10.7208 94.8098C11.5594 95.6484 68.1678 95.8324 69.4806 95.0003C70.512 94.3468 70.518 42.0985 69.4865 40.8559C68.9722 40.2355 63.1632 40.081 40.3552 40.081C15.243 40.081 11.757 40.1907 10.9396 41.0075ZM65.4496 63.8096V82.2304L58.1114 74.9099C51.8836 68.6968 50.6003 67.6718 49.6313 68.1366C49.0038 68.4373 45.3615 72.0832 41.5382 76.2386L34.5862 83.7927L30.3949 79.6296C28.0895 77.3396 25.717 75.466 25.1225 75.466C24.528 75.466 22.0794 77.3685 19.6809 79.6939L15.3208 83.9218V64.6553V45.3887H40.3852H65.4496V63.8096ZM26.821 50.9925C22.4427 52.5406 19.4373 57.6254 20.2718 62.0739C21.9019 70.7627 33.1531 73.1412 38.4968 65.9262C39.9571 63.9552 40.492 58.9878 39.5024 56.5981C38.5104 54.2025 35.3098 51.4879 32.587 50.7318C29.8263 49.9652 29.7119 49.9705 26.821 50.9925ZM81.8152 50.7436C80.6304 51.4337 80.4482 53.6641 81.4908 54.7068C82.5052 55.7211 123.882 55.7211 124.896 54.7068C125.98 53.6234 125.739 51.3995 124.464 50.7171C122.925 49.8938 83.2324 49.9186 81.8152 50.7436ZM131.944 50.7436C130.759 51.4337 130.577 53.6641 131.62 54.7068C132.686 55.7736 138.887 55.612 140.011 54.488C142.263 52.2351 140.315 50.0996 136.03 50.1244C134.35 50.1344 132.512 50.4128 131.944 50.7436ZM33.3932 56.8122C34.631 57.8773 35.0185 58.7389 35.0185 60.4273C35.0185 62.1158 34.631 62.9774 33.3932 64.0425C31.5177 65.6555 30.0935 65.7905 27.7481 64.5774C24.8836 63.096 24.4077 59.2484 26.7944 56.8623C28.6586 54.9975 31.2606 54.9781 33.3932 56.8122ZM81.8152 60.7694C80.5732 61.493 80.4582 63.8467 81.6182 64.8092C82.1077 65.2155 83.8475 65.4284 85.8249 65.3235C88.5177 65.1813 89.3687 64.8865 90.0464 63.8615C90.8095 62.7073 90.7717 62.4543 89.6725 61.355C88.3249 60.0074 83.7136 59.6636 81.8152 60.7694ZM96.8379 61.0507C95.2945 62.1317 95.1725 63.2322 96.4534 64.5137C97.2614 65.3211 100.062 65.4402 118.232 65.4402C136.403 65.4402 139.203 65.3211 140.011 64.5137C141.292 63.2322 141.17 62.1317 139.627 61.0507C138.503 60.2634 135.455 60.1325 118.232 60.1325C101.009 60.1325 97.9614 60.2634 96.8379 61.0507ZM81.8152 70.7952C80.6304 71.4852 80.4482 73.7156 81.4908 74.7583C82.5052 75.7727 123.882 75.7727 124.896 74.7583C126.162 73.4927 125.736 71.3584 124.091 70.7332C122.023 69.9471 83.174 70.0037 81.8152 70.7952ZM132.534 70.5646C131.207 70.9113 130.56 73.4473 131.508 74.589C132.412 75.6783 139.179 75.8092 140.23 74.7583C143.011 71.977 137.864 69.1716 132.534 70.5646ZM65.4496 90.054C65.4496 90.6302 62.7332 90.7995 53.47 90.7995H41.4904L39.8179 89.0538L38.146 87.3082L44.2322 80.7596L50.3184 74.2104L57.8837 81.7592C62.045 85.9111 65.4496 89.6436 65.4496 90.054ZM29.6075 85.9181C31.8049 88.099 33.6031 90.0894 33.6031 90.3413C33.6031 90.5931 29.755 90.7995 25.0517 90.7995C20.3485 90.7995 16.5003 90.6072 16.5003 90.3719C16.5003 89.712 24.3529 81.9532 25.021 81.9532C25.346 81.9532 27.4101 83.7372 29.6075 85.9181ZM81.469 86.2602C80.5054 87.422 80.4299 138.907 81.3906 140.065C82.0016 140.801 86.3014 140.928 110.596 140.928C135.708 140.928 139.194 140.819 140.011 140.002C140.825 139.187 140.938 135.937 140.938 113.21C140.938 90.4828 140.825 87.2327 140.011 86.4182C139.194 85.6014 135.708 85.4917 110.596 85.4917C87.9026 85.4917 81.9774 85.648 81.469 86.2602ZM135.63 108.925V127.051L128.692 120.13C124.875 116.324 121.309 113.21 120.766 113.21C120.223 113.21 116.511 116.753 112.518 121.083L105.258 128.956L101.045 124.917C98.7281 122.694 96.3455 120.877 95.7504 120.877C95.1554 120.877 92.6059 122.927 90.0847 125.434L85.5011 129.99V110.395V90.7995H110.566H135.63V108.925ZM96.2582 96.7619C92.6808 98.5329 91.1911 100.896 90.9251 105.223C90.7411 108.212 90.9274 109.111 92.0839 110.797C94.1416 113.797 96.2747 115.111 99.6044 115.431C103.319 115.788 105.537 114.907 108.117 112.051C112.588 107.103 110.898 99.4441 104.715 96.6357C101.568 95.2067 99.3332 95.2397 96.2582 96.7619ZM104.105 102.273C106.261 104.429 106.085 107.35 103.676 109.377C102.209 110.611 101.405 110.88 99.9901 110.609C97.906 110.21 95.5269 107.791 95.5269 106.071C95.5269 104.567 97.0455 101.613 98.021 101.22C100.016 100.417 102.717 100.884 104.105 102.273ZM10.9396 106.47C10.43 106.98 10.0131 107.757 10.0131 108.197C10.0131 108.637 10.43 109.414 10.9396 109.925C11.7475 110.732 14.5483 110.851 32.7185 110.851C50.8887 110.851 53.6894 110.732 54.4974 109.925C55.6733 108.748 55.6733 107.646 54.4974 106.47C53.6894 105.662 50.8887 105.543 32.7185 105.543C14.5483 105.543 11.7475 105.662 10.9396 106.47ZM61.0678 106.843C60.2929 107.949 60.2763 108.322 60.9557 109.35C61.5756 110.287 62.505 110.596 65.1259 110.734C68.8212 110.93 70.1676 110.265 70.1676 108.243C70.1676 106.203 68.9952 105.543 65.3653 105.543C62.5422 105.543 61.8262 105.76 61.0678 106.843ZM10.9396 116.496C8.72152 118.714 10.6335 120.877 14.8119 120.877C16.4319 120.877 18.2708 120.602 18.8983 120.266C20.3827 119.472 20.3827 116.974 18.8983 116.179C17.109 115.222 12.0111 115.425 10.9396 116.496ZM26.3787 116.206C25.1938 116.896 25.0116 119.126 26.0543 120.169C27.0687 121.183 68.4456 121.183 69.4599 120.169C69.8492 119.78 70.1676 118.904 70.1676 118.223C70.1676 115.609 69.8215 115.568 48.0815 115.587C35.1418 115.598 27.0244 115.83 26.3787 116.206ZM128.397 126.913C132.375 130.881 135.63 134.464 135.63 134.875C135.63 135.452 132.915 135.621 123.643 135.621C111.657 135.621 111.655 135.621 110.287 134.163C109.085 132.884 109.019 132.579 109.741 131.657C111.405 129.535 120.542 119.697 120.848 119.697C121.022 119.697 124.419 122.944 128.397 126.913ZM10.9396 126.521C10.43 127.031 10.0131 127.809 10.0131 128.249C10.0131 128.689 10.43 129.466 10.9396 129.976C11.7475 130.783 14.5483 130.903 32.7185 130.903C50.8887 130.903 53.6894 130.783 54.4974 129.976C55.7123 128.761 55.668 127.767 54.3452 126.571C53.3851 125.702 51.0007 125.595 32.5669 125.595C14.5347 125.595 11.7469 125.715 10.9396 126.521ZM61.2783 126.817C60.179 127.917 60.1413 128.17 60.9044 129.324C61.582 130.349 62.4331 130.644 65.1259 130.786C68.869 130.984 70.1676 130.318 70.1676 128.197C70.1676 126.426 68.5794 125.595 65.1937 125.595C63.2558 125.595 62.1582 125.937 61.2783 126.817ZM100.168 131.197L104.4 135.621H95.7021H87.005L91.3987 131.197C93.8149 128.765 95.8247 126.774 95.8643 126.774C95.9038 126.774 97.8405 128.765 100.168 131.197Z" fill="white"/>
</svg>
