<svg width="31" height="32" viewBox="0 0 31 32" fill="none" xmlns="http://www.w3.org/2000/svg">
<path fill-rule="evenodd" clip-rule="evenodd" d="M0.939394 1.47858C0.0544849 2.36349 0 3.04408 0 13.221C0 23.3979 0.0544849 24.0785 0.939394 24.9634C1.8243 25.8483 2.50489 25.9028 12.6818 25.9028C22.8587 25.9028 23.5393 25.8483 24.4242 24.9634C25.3092 24.0785 25.3636 23.3979 25.3636 13.221C25.3636 3.04408 25.3092 2.36349 24.4242 1.47858C23.5393 0.593669 22.8587 0.539185 12.6818 0.539185C2.50489 0.539185 1.8243 0.593669 0.939394 1.47858ZM22.4698 7.29578C22.5877 7.91343 21.0283 9.80302 17.3079 13.5503C14.376 16.5037 11.5818 19.1382 11.098 19.4055C10.3563 19.8151 9.75044 19.4266 7.223 16.9217C4.05677 13.7837 3.78764 13.2313 4.9553 12.2624C5.57389 11.7485 6.03232 12.0026 8.01585 13.9561L10.3484 16.2534L15.3901 11.2022C20.4713 6.1112 22.0753 5.22629 22.4698 7.29578ZM28.0912 15.7964L27.947 25.4172C27.6556 26.738 26.6916 27.8086 25.4084 28.2364L25.3636 28.2513L15.2572 28.6304C9.64758 28.7144 5.63636 28.372 5.63636 28.6304C5.63636 28.8741 6.05909 30.0831 6.57576 30.5998C7.46067 31.4847 8.14126 31.5392 18.3182 31.5392C28.4951 31.5392 29.1757 31.4847 30.0606 30.5998C30.9455 29.7149 31 29.0343 31 18.8574C31 8.68044 30.9455 7.99985 30.0606 7.11494C29.5439 6.59828 28.6604 6.17555 28.4167 6.17555C28.1583 6.17555 28.1752 10.1868 28.0912 15.7964Z" fill="#FD6F8B"/>
</svg>
