<svg width="150" height="150" viewBox="0 0 150 150" fill="none" xmlns="http://www.w3.org/2000/svg">
<path fill-rule="evenodd" clip-rule="evenodd" d="M72.6562 0.205874C72.1729 0.401577 56.4914 6.20177 37.8088 13.0953C12.8531 22.3033 3.41016 26.0404 2.22012 27.1807C0.472851 28.8547 -0.351563 31.7346 0.24082 34.0942C1.13203 37.6461 3.17695 38.8197 17.8711 44.2121L31.9336 49.3731L32.2266 62.8543C32.5412 77.3276 32.7457 78.3008 35.8969 80.3316C38.1328 81.7725 73.3324 94.7381 75.0088 94.7381C77.5975 94.7381 113.679 80.9352 115.283 79.3309C117.369 77.2455 117.744 74.5361 117.759 61.4715L117.773 49.5916L119.385 48.9652C120.271 48.6207 123.04 47.5795 125.537 46.6508L130.078 44.9627V53.6815V62.4002L127.498 63.9125C123.538 66.2328 122.461 68.9873 122.461 76.7879C122.461 83.3141 123.182 86.0117 125.124 86.757C125.646 86.9568 129.095 87.1209 132.789 87.1209C139.14 87.1209 139.585 87.0424 140.944 85.6824C142.313 84.3143 142.383 83.9006 142.383 77.1635C142.383 71.2654 142.189 69.7027 141.224 67.8108C140.113 65.634 137.971 63.7051 135.791 62.9182C134.871 62.5865 134.766 61.5576 134.766 52.9039V43.26L138.135 42.019C139.987 41.3363 142.634 40.3549 144.016 39.8381C149.933 37.6244 151.859 31.0883 147.754 27.1561C146.532 25.9848 137.298 22.3215 111.872 12.9195C93.0428 5.95685 76.7139 0.167788 75.5859 0.0547017C74.458 -0.0583843 73.1396 0.00958449 72.6562 0.205874ZM109.739 17.4699C128.176 24.2791 143.592 30.1121 143.994 30.4326C144.397 30.7526 144.727 31.6092 144.727 32.3358C144.727 33.0623 144.397 33.9084 143.994 34.2154C142.842 35.0932 133.371 38.4881 132.074 38.4881C131.112 38.4881 95.9027 31.6156 91.5738 30.5826C90.665 30.3658 90.0908 29.583 89.6561 27.9694C86.7832 17.3 63.1816 17.4301 60.3 28.1322C59.7615 30.1315 59.8623 30.7807 61.0758 33.1385C62.1979 35.3188 63.143 36.1918 65.9139 37.6074C69.068 39.2194 69.8525 39.367 75.2549 39.3641C81.4107 39.3606 83.5646 38.7219 86.5195 36.0231C87.784 34.8682 87.8016 34.8705 105.237 38.4518C114.836 40.4235 122.746 42.0951 122.816 42.1666C123.054 42.4092 75.8848 59.6123 75 59.6053C73.858 59.5959 6.97734 34.9807 5.97598 34.2014C4.99981 33.4414 5.30039 30.8563 6.44531 30.166C8.28105 29.0592 73.599 5.15587 74.8758 5.12365C75.6129 5.1049 91.3014 10.6608 109.739 17.4699ZM80.7105 25.9127C85.2727 27.8194 86.0689 29.8344 83.2102 32.2402C80.6215 34.4182 75.8145 35.341 71.7703 34.4363C68.2822 33.6553 65.0391 31.3918 65.0391 29.7377C65.0391 26.051 75.1406 23.586 80.7105 25.9127ZM60.1986 59.8186C67.6881 62.5889 74.4117 64.8453 75.14 64.833C75.8689 64.8207 84.5068 61.8354 94.3359 58.199L112.207 51.5885L112.366 63.3154C112.487 72.2041 112.345 75.2176 111.78 75.766C111.37 76.1645 102.928 79.526 93.0176 83.2361L75 89.982L56.9824 83.2256C47.073 79.5096 38.6355 76.1973 38.2324 75.8639C37.6904 75.4162 37.5 72.1602 37.5 63.3336V51.408L42.041 53.0949C44.5389 54.0225 52.7098 57.0483 60.1986 59.8186ZM134.406 67.7598C136.815 68.6756 137.695 71.184 137.695 77.1307V82.4334H132.715H127.734V76.393C127.734 70.1703 128.052 69.1438 130.371 67.8758C131.837 67.0742 132.55 67.0537 134.406 67.7598ZM7.7666 100.91C6.31992 101.924 3.81855 109.126 3.16465 114.163C2.90859 116.134 2.2459 117.911 1.37871 118.953C0.249609 120.31 0 121.283 0 124.33C0 130.012 1.08984 136.648 3.00703 142.637C5.41582 150.163 5.81133 150.351 15.7564 148.721C25.8439 147.066 40.2533 145.778 53.7598 145.323C64.1438 144.973 65.0391 145.022 65.0391 145.941C65.0391 147.435 67.7104 149.816 69.3867 149.816C70.1965 149.816 71.7885 148.999 72.9287 147.997L75 146.179L77.0713 147.997C78.2115 148.999 79.8035 149.816 80.6133 149.816C82.2896 149.816 84.9609 147.435 84.9609 145.941C84.9609 145.022 85.8562 144.973 96.2402 145.323C109.747 145.778 124.156 147.066 134.244 148.721C144.189 150.351 144.584 150.163 146.993 142.637C148.91 136.648 150 130.012 150 124.33C150 121.283 149.75 120.31 148.621 118.953C147.754 117.911 147.091 116.134 146.835 114.163C146.181 109.126 143.68 101.924 142.233 100.91C140.633 99.7889 138.756 99.7818 132.761 100.873C125.159 102.257 113.664 103.412 100.081 104.157L87.426 104.851L85.4209 103.322C82.6096 101.178 78.9393 100.012 75 100.012C71.0607 100.012 67.3904 101.178 64.5791 103.322L62.574 104.851L49.9189 104.157C36.3363 103.412 24.8408 102.257 17.2395 100.873C11.2436 99.7818 9.36738 99.7889 7.7666 100.91ZM18.4729 106.119C28.8264 107.717 39.8812 108.806 49.6764 109.194C56.2178 109.453 59.1316 109.773 58.9482 110.212C58.8012 110.563 58.3447 112.368 57.934 114.221L57.1875 117.59H32.4023C12.9604 117.59 7.61895 117.432 7.62598 116.857C7.63887 115.753 9.32402 108.769 10.101 106.602C10.558 105.325 11.0836 104.78 11.6906 104.954C12.1893 105.096 15.2414 105.62 18.4729 106.119ZM78.1852 105.337C83.5037 106.676 87.2672 111.628 87.2918 117.319C87.3264 125.21 79.6447 131.366 72.2168 129.401C60.0785 126.191 59.4445 109.172 71.325 105.477C74.1896 104.585 75.1266 104.567 78.1852 105.337ZM140.512 108.947C141.188 111.284 141.82 114.118 141.916 115.246L142.09 117.297L117.452 117.45L92.8154 117.602L92.0672 114.227C91.6559 112.37 91.1988 110.564 91.0518 110.212C90.8684 109.773 93.6979 109.456 100.031 109.206C112.218 108.725 128.22 106.9 138.928 104.769C139.123 104.731 139.836 106.61 140.512 108.947ZM70.8387 111.31C68.0115 113.209 66.8637 116.643 68.0309 119.71C69.3012 123.047 72.1816 124.797 75.8443 124.456C78.1506 124.241 79.067 123.818 80.3537 122.379C86.2242 115.808 78.1406 106.405 70.8387 111.31ZM76.2105 115.266C77.7064 116.067 77.683 118.539 76.1719 119.347C73.5598 120.746 71.1252 116.782 73.6816 115.293C74.9684 114.543 74.8617 114.545 76.2105 115.266ZM59.1387 124.435C59.5676 125.622 61.0711 127.824 62.4791 129.329C64.96 131.982 65.0391 132.185 65.0391 135.886V139.705L56.1035 140.095C39.351 140.826 21.941 142.454 11.0824 144.307C9.17461 144.632 8.92031 144.511 8.31035 142.992C6.74004 139.08 5.72754 133.901 5.4334 128.283L5.11992 122.277H31.7391H58.3582L59.1387 124.435ZM144.567 128.283C144.272 133.901 143.26 139.08 141.69 142.992C141.08 144.511 140.825 144.632 138.918 144.307C128.059 142.454 110.649 140.826 93.8965 140.095L84.9609 139.705V135.886C84.9609 132.185 85.04 131.982 87.5209 129.329C88.9289 127.824 90.4324 125.622 90.8613 124.435L91.6418 122.277H118.261H144.88L144.567 128.283ZM80.1516 138.923C80.2459 141.369 80.1311 143.371 79.8967 143.371C79.6617 143.371 78.8619 142.8 78.1189 142.101C77.349 141.379 76.0061 140.832 75 140.832C73.9939 140.832 72.651 141.379 71.8811 142.101C71.1381 142.8 70.3494 143.371 70.1285 143.371C69.7037 143.371 69.5531 134.951 69.9703 134.533C70.1045 134.399 72.4113 134.33 75.0973 134.382L79.9805 134.475L80.1516 138.923Z" fill="white"/>
</svg>
