<svg width="151" height="150" viewBox="0 0 151 150" fill="none" xmlns="http://www.w3.org/2000/svg">
<path fill-rule="evenodd" clip-rule="evenodd" d="M33.7417 0.882209C33.0278 1.59665 32.8209 3.11755 32.8209 7.6609C32.8209 14.4249 33.3115 15.7858 35.7514 15.7858C38.1913 15.7858 38.6818 14.4249 38.6818 7.6609C38.6818 3.11755 38.4749 1.59665 37.7611 0.882209C36.5848 -0.29407 34.918 -0.29407 33.7417 0.882209ZM112.277 0.882209C111.564 1.59665 111.357 3.11755 111.357 7.6609C111.357 14.4249 111.847 15.7858 114.287 15.7858C116.727 15.7858 117.218 14.4249 117.218 7.6609C117.218 3.11755 117.011 1.59665 116.297 0.882209C115.121 -0.29407 113.454 -0.29407 112.277 0.882209ZM5.9781 5.93956C4.13602 7.78164 5.17105 9.47836 12.772 17.0799C20.3736 24.6809 22.0703 25.7159 23.9124 23.8739C25.7545 22.0318 24.7194 20.3351 17.1185 12.7335C9.5169 5.13252 7.82017 4.09749 5.9781 5.93956ZM132.92 12.7335C125.319 20.3351 124.284 22.0318 126.126 23.8739C127.968 25.7159 129.665 24.6809 137.267 17.0799C144.867 9.47836 145.903 7.78164 144.06 5.93956C142.218 4.09749 140.522 5.13252 132.92 12.7335ZM88.2063 16.7171C87.2392 17.2405 83.8862 20.1973 80.7553 23.2884L75.0626 28.9072L71.2906 25.2852C69.2158 23.2925 66.8152 21.3953 65.956 21.0688C63.7136 20.2161 59.9896 20.3368 58.0807 21.3238C55.6092 22.6015 52.9536 25.934 52.5065 28.3182C52.2064 29.9164 51.8196 30.438 50.934 30.438C47.8031 30.438 43.2088 34.7329 42.543 38.2817C42.2429 39.8799 41.8561 40.4015 40.9705 40.4015C38.0184 40.4015 34.0031 43.9609 32.8362 47.6122C32.195 49.6172 32.2624 50.9253 33.162 53.9677C33.3531 54.613 32.7547 55.3614 31.3581 56.2247C27.4389 58.6465 25.8078 64.5413 27.9031 68.7096C28.4218 69.7411 29.9292 71.7086 31.2537 73.0812L33.662 75.578L16.8313 92.4456C5.71143 103.589 0 109.722 0 110.518C0 111.976 1.73599 113.663 3.23638 113.663C3.87287 113.663 9.17638 108.837 15.9463 102.098L27.5631 90.5337L37.9551 100.925L48.3464 111.316L31.2063 128.464C19.6873 139.988 14.0661 146.013 14.0661 146.836C14.0661 148.189 15.7564 150 17.0194 150C17.4648 150 28.6632 139.187 41.9053 125.97C55.1474 112.754 66.2977 101.941 66.6845 101.941C67.0713 101.941 69.3032 103.173 71.6434 104.68C77.5318 108.472 80.9435 109.698 86.0881 109.872L90.4164 110.018L110.414 130.009C123.643 143.235 130.817 150 131.609 150C133.228 150 134.214 148.903 134.214 147.104C134.214 145.95 131.574 142.973 122.476 133.866L110.738 122.118L112.512 120.418C114.53 118.485 114.78 116.635 113.215 115.219C111.721 113.866 111.111 113.985 108.705 116.098L106.598 117.949L103.402 114.793L100.206 111.636L112.076 99.7558C118.605 93.221 124.223 87.8747 124.56 87.8747C124.898 87.8747 126.471 89.191 128.056 90.8004L130.937 93.7256L129.059 95.6632C127.102 97.6823 126.685 99.4522 127.884 100.651C129.061 101.828 131.569 101.457 133.042 99.8895C133.799 99.0836 134.708 98.4242 135.061 98.4242C135.414 98.4242 138.067 100.798 140.954 103.699C143.842 106.6 146.63 108.974 147.151 108.974C148.389 108.974 150.039 107.125 150.039 105.737C150.039 105.102 145.265 99.8496 138.61 93.1641C127.321 81.8239 127.181 81.6528 127.181 79.1677C127.181 77.7846 126.513 74.6613 125.696 72.2279L124.21 67.8029L127.451 64.4059C129.233 62.5375 130.956 60.3109 131.28 59.4582C132.145 57.1848 131.999 52.901 130.991 50.9523C129.793 48.6361 126.559 46.2777 124.012 45.8645C122.27 45.582 121.906 45.2784 121.906 44.105C121.906 40.7813 118.329 36.909 114.305 35.8764C112.701 35.4649 112.195 34.989 111.915 33.6287C111.144 29.8807 108.228 26.9104 104.341 25.9129C102.738 25.5014 102.232 25.0255 101.952 23.6652C101.413 21.0489 100.415 19.5098 98.1193 17.7592C95.5083 15.7677 90.863 15.2789 88.2063 16.7171ZM94.8156 22.5593C95.7598 23.2198 96.1184 24.0643 96.1184 25.6222C96.1184 27.507 95.5962 28.2988 91.898 32.0222C87.9642 35.9824 87.7157 36.3816 88.2455 37.8966C88.6564 39.0711 89.2735 39.5752 90.4715 39.7135C91.8482 39.8717 92.8522 39.2024 96.4056 35.7574C100.92 31.3799 102.356 30.8254 104.779 32.5228C105.709 33.1739 106.082 34.0302 106.082 35.5141C106.082 37.3551 105.41 38.2846 100.221 43.625C96.9976 46.9423 94.3602 50.0609 94.3602 50.5549C94.3602 51.8443 95.9936 53.2955 97.4453 53.2955C98.2331 53.2955 100.874 51.1451 104.645 47.4346C110.908 41.2719 112.144 40.6659 114.743 42.4863C115.677 43.1409 116.045 43.9925 116.045 45.5017C116.045 47.3777 115.413 48.2475 110.185 53.5604C106.961 56.836 104.324 59.9441 104.324 60.4668C104.324 61.802 105.934 63.259 107.409 63.259C108.197 63.259 110.837 61.1086 114.608 57.3981C120.871 51.2354 122.107 50.6294 124.706 52.4497C125.647 53.1085 126.009 53.9554 126.009 55.4962C126.009 57.4924 125.187 58.4571 113.262 70.4497C99.3156 84.4748 95.5535 87.6455 89.3784 90.5777C84.2209 93.0276 79.9623 94.1276 73.748 94.6176C71.0626 94.8292 67.5818 95.4077 66.0129 95.9041L63.1598 96.8061L55.0237 88.6852C50.5483 84.2186 46.8876 80.429 46.8888 80.2631C46.8894 80.0979 47.6642 79.4438 48.6101 78.8102C50.5313 77.5232 52.7479 73.975 52.7479 72.1868C52.7479 71.3048 53.361 70.8553 55.2388 70.3588C56.6091 69.9966 58.3023 69.2142 59.0021 68.6205C60.7562 67.1336 62.7067 63.8087 62.7091 62.3031C62.7108 61.3278 63.2582 60.9093 65.2023 60.3953C66.5726 60.0331 68.2658 59.2507 68.9656 58.657C70.7197 57.1701 72.6702 53.8452 72.6726 52.3396C72.6743 51.3608 73.2147 50.9523 75.1658 50.4547C81.9216 48.731 84.896 40.4303 80.7196 34.9556L79.1834 32.9412L84.9312 27.2943C90.9767 21.3548 92.2356 20.7518 94.8156 22.5593ZM70.4478 32.6652C75.7982 38.0156 76.7775 39.2786 76.7775 40.8276C76.7775 42.8819 74.5492 45.0902 72.4774 45.0902C70.8323 45.0902 58.0227 32.2807 58.0227 30.6356C58.0227 28.5637 60.2311 26.3354 62.2853 26.3354C63.8344 26.3354 65.0974 27.3148 70.4478 32.6652ZM0.920744 33.7031C0.414364 34.2101 0 35.1144 0 35.7128C0 38.0683 1.51035 38.6433 7.69944 38.6433C14.4635 38.6433 15.8244 38.1527 15.8244 35.7128C15.8244 33.2729 14.4635 32.7824 7.69944 32.7824C3.15608 32.7824 1.63519 32.9893 0.920744 33.7031ZM135.24 33.4154C133.819 34.2429 133.889 37.256 135.348 38.0367C135.971 38.3702 139.117 38.6433 142.339 38.6433C148.528 38.6433 150.039 38.0683 150.039 35.7128C150.039 33.3409 148.538 32.7812 142.231 32.8C138.95 32.8099 135.804 33.0866 135.24 33.4154ZM60.4843 42.6287C65.8347 47.9791 66.814 49.2421 66.814 50.7911C66.814 53.1736 64.3325 55.2864 62.1505 54.7613C60.2118 54.2948 48.8182 42.9012 48.3517 40.9624C47.8265 38.7804 49.9394 36.2989 52.3218 36.2989C53.8709 36.2989 55.1339 37.2783 60.4843 42.6287ZM50.5407 52.5529C55.9333 57.9291 56.8505 59.1153 56.8505 60.7153C56.8505 63.1377 54.3884 65.2546 52.187 64.7248C50.2483 64.2582 38.8547 52.8647 38.3882 50.9259C37.8607 48.734 39.9753 46.2624 42.3777 46.2624C43.9502 46.2624 45.185 47.2136 50.5407 52.5529ZM42.5816 64.5572C46.5295 68.3855 46.9263 68.9768 46.7687 70.7996C46.6491 72.1757 46.0958 73.1832 45.0198 73.9832C43.646 75.0048 43.2211 75.061 41.6902 74.4269C40.7255 74.0272 38.3348 72.0333 36.3785 69.9955C32.379 65.8301 31.7988 63.671 34.1039 61.5236C36.3427 59.4371 37.8619 59.981 42.5816 64.5572ZM120.664 75.2404C121.025 76.6722 121.32 78.8507 121.32 80.0809C121.32 82.2119 120.729 82.9082 108.733 94.8942L96.1454 107.472L94.1468 105.535C92.2444 103.691 91.9982 103.616 89.0057 103.984C85.3069 104.438 80.8585 103.558 78.0347 101.812L76.0303 100.573L80.9669 99.5742C91.9871 97.3429 98.9358 93.0217 111.056 80.861C115.564 76.3375 119.423 72.6364 119.631 72.6364C119.839 72.6364 120.304 73.808 120.664 75.2404ZM48.6383 90.505L58.8755 100.755L55.6784 103.992L52.4807 107.23L42.0712 96.8319L31.6611 86.4341L34.7117 83.3448C36.3896 81.6457 37.9064 80.2555 38.0822 80.2555C38.2575 80.2555 43.0077 84.868 48.6383 90.505ZM118.906 105.982C117.727 106.937 117.616 107.328 118.12 108.766C119.168 111.763 123.665 111.187 123.665 108.056C123.665 106.869 121.786 104.871 120.668 104.871C120.454 104.871 119.66 105.371 118.906 105.982Z" fill="white"/>
</svg>
