<svg width="152" height="112" viewBox="0 0 152 112" fill="none" xmlns="http://www.w3.org/2000/svg">
<path fill-rule="evenodd" clip-rule="evenodd" d="M48.7882 0.379512C32.7736 3.69168 26.7031 23.0235 37.9451 34.9104C42.1904 39.3991 46.1538 41.0694 52.6732 41.1181C58.7943 41.163 63.4335 39.2954 67.4316 35.1753C71.3469 31.1411 72.8515 27.5116 73.1183 21.4588C73.3181 16.91 73.1398 15.846 71.6042 12.4238C67.6965 3.71634 57.8314 -1.49121 48.7882 0.379512ZM59.7047 6.59038C65.1076 9.37402 68.2737 14.5133 68.3299 20.592C68.4646 35.1064 50.5964 41.8173 40.9608 30.8712C31.7956 20.4586 40.1345 3.97871 54.0147 5.07243C55.7963 5.21279 58.3568 5.89558 59.7047 6.59038ZM98.1926 7.58422C90.3569 10.0619 85.4813 15.9098 84.777 23.6728C83.9349 32.9606 90.1135 41.2395 99.3008 43.1323C115.699 46.5122 127.56 28.4624 118.071 14.5683C113.813 8.33339 105.291 5.33923 98.1926 7.58422ZM109.175 13.4158C117.23 17.4297 119.035 27.6342 112.872 34.3205C105.072 42.7827 91.0334 38.1796 89.8562 26.7738C89.4187 22.5361 90.386 19.3662 93.0381 16.3454C97.1766 11.6323 103.348 10.512 109.175 13.4158ZM34.1904 46.2397C24.5738 48.8292 15.7797 56.1009 11.3277 65.1441C9.58085 68.6921 6.55887 79.8589 1.08453 102.989C-0.920216 111.461 -1.0827 111.286 8.96634 111.508C13.4367 111.607 17.4835 111.408 18.1404 111.056C18.9825 110.605 19.7064 108.674 20.6945 104.241C22.7846 94.8651 22.9547 94.788 23.8259 102.819C24.2552 106.779 24.9108 110.385 25.2825 110.832C26.308 112.068 72.1289 112.016 73.3662 110.779C73.9636 110.181 74.7703 104.501 75.9481 92.6024C76.8901 83.0832 77.6576 74.9396 77.6532 74.5047C77.6475 73.9161 79.5758 73.7144 85.2107 73.7144C101.163 73.7144 119.877 69.4824 132.579 63.0022C137.387 60.5492 139.145 54.9029 136.467 50.5115C134.09 46.6133 132.546 46.2871 120.709 47.1798C108.985 48.0642 88.0677 47.6843 65.6336 46.1796C48.7844 45.0498 38.535 45.0694 34.1904 46.2397ZM56.6315 50.619C82.1634 52.4328 106.676 53.0821 118.812 52.2659C131.642 51.4036 132.648 51.6034 132.648 55.0091C132.648 56.1711 132.293 57.4159 131.858 57.775C130.37 59.0047 118.262 63.5876 112.328 65.1669C103.215 67.5927 94.6939 68.6491 84.2029 68.6529C76.8674 68.6561 74.4713 68.859 73.9187 69.5254C73.5223 70.0027 72.4874 77.6133 71.6187 86.4371C70.7501 95.2609 69.889 103.405 69.7044 104.535L69.3693 106.59H49.2776H29.1858L27.6533 92.9116C26.289 80.7389 25.9767 79.1382 24.8166 78.3719C22.3579 76.749 21.6226 78.3131 18.5336 91.7325C16.9329 98.6869 15.4762 104.874 15.2973 105.483C15.0248 106.408 14.2017 106.59 10.2725 106.59C7.68801 106.59 5.57325 106.337 5.57325 106.028C5.57325 103.587 14.2112 70.6937 15.6792 67.5446C19.3018 59.7754 27.3037 53.2591 36.0289 50.973C41.6828 49.4924 40.9538 49.5051 56.6315 50.619ZM131.834 67.4447C121.601 72.7263 100.65 77.5077 87.7433 77.5077C84.5431 77.5077 83.8672 77.7151 83.1086 78.9302C82.5731 79.7881 81.6836 85.4995 80.8687 93.313C79.3159 108.202 79.2622 109.85 80.3009 110.889C81.4376 112.025 122.11 111.97 123.056 110.83C123.429 110.382 123.819 108.044 123.924 105.635L124.113 101.256L126.642 106.294L129.171 111.331L139.384 111.504C152.091 111.721 152.088 111.722 150.334 105.479C146.089 90.3726 138.955 67.1868 138.314 66.4149C137.227 65.1049 135.986 65.3022 131.834 67.4447ZM38.1323 67.3196C34.2201 69.1207 32.1812 73.6948 33.3692 78.0052C33.7687 79.4549 36.5441 83.4056 40.6257 88.3337C47.0288 96.0644 48.6416 97.5236 49.9148 96.7365C51.1805 95.9544 62.7816 81.595 63.8653 79.4688C65.3661 76.5246 65.2979 74.5609 63.5789 71.2083C61.1752 66.5211 55.8349 64.8242 51.068 67.2342C48.9848 68.2875 48.7737 68.2875 46.6671 67.2355C43.8481 65.8269 41.3205 65.8522 38.1323 67.3196ZM45.9199 72.7661C46.9529 73.6354 48.285 74.3466 48.8799 74.3466C49.4748 74.3466 50.8069 73.6354 51.8399 72.7661C55.0231 70.088 58.7608 70.9851 59.6806 74.6482C59.8842 75.4606 59.6977 76.792 59.2653 77.6069C58.5091 79.0313 49.3256 90.152 48.9052 90.152C48.792 90.152 46.7342 87.8046 44.3317 84.9362C37.072 76.2673 36.8482 75.7476 39.1267 72.8514C40.8166 70.7025 43.4283 70.6697 45.9199 72.7661ZM140.304 88.9147C143.034 98.1141 145.274 105.855 145.28 106.115C145.287 106.376 142.36 106.59 138.776 106.59H132.259L127.554 96.9483C124.202 90.0805 122.497 87.2419 121.626 87.08C119.263 86.6419 118.74 88.5961 118.74 97.8593V106.59H101.67C88.4287 106.59 84.6025 106.413 84.6126 105.799C84.643 103.863 87.0043 83.1173 87.2123 82.9586C87.3406 82.8613 91.9703 82.2796 97.5009 81.6664C109.481 80.3375 120.012 77.87 128.223 74.4674C131.526 73.0986 134.478 72.0258 134.784 72.0833C135.089 72.1408 137.573 79.7148 140.304 88.9147Z" fill="white"/>
</svg>
